<?xml version="1.0" encoding="utf-8"?>
<!-- Generator: Adobe Illustrator 21.0.0, SVG Export Plug-In . SVG Version: 6.00 Build 0)  -->
<svg version="1.1" id="Layer_1" xmlns="http://www.w3.org/2000/svg" xmlns:xlink="http://www.w3.org/1999/xlink" x="0px" y="0px"
	 viewBox="0 0 568 562" style="enable-background:new 0 0 568 562;" xml:space="preserve">
<style type="text/css">
	.st0{fill:#12100B;}
	.st1{clip-path:url(#SVGID_2_);fill:url(#SVGID_3_);}
	.st2{clip-path:url(#SVGID_5_);fill:url(#SVGID_6_);}
	.st3{clip-path:url(#SVGID_8_);fill:url(#SVGID_9_);}
	.st4{clip-path:url(#SVGID_11_);fill:url(#SVGID_12_);}
	.st5{clip-path:url(#SVGID_14_);fill:url(#SVGID_15_);}
	.st6{clip-path:url(#SVGID_17_);fill:url(#SVGID_18_);}
	.st7{clip-path:url(#SVGID_20_);fill:url(#SVGID_21_);}
	.st8{clip-path:url(#SVGID_23_);fill:url(#SVGID_24_);}
	.st9{clip-path:url(#SVGID_26_);fill:url(#SVGID_27_);}
	.st10{clip-path:url(#SVGID_29_);fill:url(#SVGID_30_);}
	.st11{clip-path:url(#SVGID_32_);fill:url(#SVGID_33_);}
	.st12{clip-path:url(#SVGID_35_);fill:url(#SVGID_36_);}
	.st13{clip-path:url(#SVGID_38_);fill:url(#SVGID_39_);}
	.st14{clip-path:url(#SVGID_41_);fill:url(#SVGID_42_);}
	.st15{clip-path:url(#SVGID_44_);fill:url(#SVGID_45_);}
	.st16{clip-path:url(#SVGID_47_);fill:url(#SVGID_48_);}
	.st17{clip-path:url(#SVGID_50_);fill:url(#SVGID_51_);}
	.st18{clip-path:url(#SVGID_53_);fill:url(#SVGID_54_);}
	.st19{clip-path:url(#SVGID_56_);fill:url(#SVGID_57_);}
	.st20{clip-path:url(#SVGID_59_);fill:url(#SVGID_60_);}
	.st21{clip-path:url(#SVGID_62_);fill:url(#SVGID_63_);}
	.st22{clip-path:url(#SVGID_65_);fill:url(#SVGID_66_);}
	.st23{clip-path:url(#SVGID_68_);fill:url(#SVGID_69_);}
	.st24{clip-path:url(#SVGID_71_);fill:url(#SVGID_72_);}
	.st25{clip-path:url(#SVGID_74_);fill:url(#SVGID_75_);}
	.st26{clip-path:url(#SVGID_77_);fill:url(#SVGID_78_);}
	.st27{clip-path:url(#SVGID_80_);fill:url(#SVGID_81_);}
	.st28{clip-path:url(#SVGID_83_);fill:url(#SVGID_84_);}
</style>
<polygon class="st0" points="11.3,368.7 373,550.7 553,189.3 193.3,9 "/>
<g>
	<defs>
		<path id="SVGID_1_" d="M479.5,315.2c-0.9,0.5-1.8,1-2.7,1.5c-4.1,2.1-9,3.7-14.4,4.9L363.2,520L45.8,361.3H24.3l-1.9,3.9
			l347.1,173.5L482,313.7C481.2,314.2,480.4,314.7,479.5,315.2"/>
	</defs>
	<clipPath id="SVGID_2_">
		<use xlink:href="#SVGID_1_"  style="overflow:visible;"/>
	</clipPath>
	
		<linearGradient id="SVGID_3_" gradientUnits="userSpaceOnUse" x1="-145.3333" y1="573.6764" x2="-144.3333" y2="573.6764" gradientTransform="matrix(524.9738 -172.4914 -172.4914 -524.9738 175315.0156 276584.125)">
		<stop  offset="0" style="stop-color:#C6C6C6"/>
		<stop  offset="0.227" style="stop-color:#EFEEEE"/>
		<stop  offset="0.5" style="stop-color:#A8A8A7"/>
		<stop  offset="0.6378" style="stop-color:#EFEEEE"/>
		<stop  offset="1" style="stop-color:#C6C6C6"/>
	</linearGradient>
	<polygon class="st1" points="-44.4,335.6 437.2,177.4 548.8,516.8 67.2,675 	"/>
</g>
<g>
	<defs>
		<path id="SVGID_4_" d="M107.3,195.4h15.6l79.3-158.6l322.2,161.1l-0.9,1.9c1.9,1.1,3.5,2.3,4.9,3.8c1.7,1.8,3.6,4.6,4.5,8.4
			l10.2-20.4L195.9,18.1L107.3,195.4z"/>
	</defs>
	<clipPath id="SVGID_5_">
		<use xlink:href="#SVGID_4_"  style="overflow:visible;"/>
	</clipPath>
	
		<linearGradient id="SVGID_6_" gradientUnits="userSpaceOnUse" x1="-145.3333" y1="573.6888" x2="-144.3333" y2="573.6888" gradientTransform="matrix(524.9738 -172.4914 -172.4914 -524.9738 175232 276331.5)">
		<stop  offset="0" style="stop-color:#C6C6C6"/>
		<stop  offset="0.227" style="stop-color:#EFEEEE"/>
		<stop  offset="0.5" style="stop-color:#A8A8A7"/>
		<stop  offset="0.6378" style="stop-color:#EFEEEE"/>
		<stop  offset="1" style="stop-color:#C6C6C6"/>
	</linearGradient>
	<polygon class="st2" points="49.8,37 500.6,-111.1 600.5,193.1 149.7,341.2 	"/>
</g>
<g>
	<defs>
		<path id="SVGID_7_" d="M182,98.5l-11.4,22.9c-2.8,8.1-5.7,16.2-8.2,24.5c5.1-7,9.9-14.1,14.7-21.3l11.4-22.9l21.3-42.6l42.6,21.3
			c7.6,3.8,15.3,7.6,22.9,11.5c4,1.5,8.1,2.9,12.2,4.2l6.1,2c2.1,0.6,4.1,1.3,6.2,1.9c-1.7-1.3-3.5-2.5-5.3-3.8l-5.3-3.7
			c-3.5-2.5-7.1-4.8-10.7-7.2c-7.7-3.8-15.3-7.6-22.9-11.4l-49-24.5L182,98.5z"/>
	</defs>
	<clipPath id="SVGID_8_">
		<use xlink:href="#SVGID_7_"  style="overflow:visible;"/>
	</clipPath>
	
		<linearGradient id="SVGID_9_" gradientUnits="userSpaceOnUse" x1="-145.3333" y1="573.6403" x2="-144.3333" y2="573.6403" gradientTransform="matrix(524.9738 -172.4914 -172.4914 -524.9738 175209.3125 276262.4688)">
		<stop  offset="0" style="stop-color:#C6C6C6"/>
		<stop  offset="0.227" style="stop-color:#EFEEEE"/>
		<stop  offset="0.5" style="stop-color:#A8A8A7"/>
		<stop  offset="0.6378" style="stop-color:#EFEEEE"/>
		<stop  offset="1" style="stop-color:#C6C6C6"/>
	</linearGradient>
	<polygon class="st3" points="133.7,58.9 286.3,8.8 328.3,136.5 175.7,186.7 	"/>
</g>
<g>
	<defs>
		<path id="SVGID_10_" d="M388.5,432.2l-11.4,22.9l-21.3,42.6l-42.6-21.3c-7.6-3.8-15.3-7.6-22.9-11.5c-4-1.5-8.1-2.9-12.2-4.2
			l-6.1-2c-2.1-0.6-4.1-1.3-6.2-1.9c1.7,1.3,3.5,2.5,5.3,3.8l5.3,3.7c3.5,2.5,7.1,4.8,10.7,7.2c7.7,3.8,15.3,7.6,22.9,11.4l49,24.5
			l24.5-49l11.4-22.9c2.8-8.1,5.7-16.2,8.2-24.5C398.1,417.9,393.3,425.1,388.5,432.2"/>
	</defs>
	<clipPath id="SVGID_11_">
		<use xlink:href="#SVGID_10_"  style="overflow:visible;"/>
	</clipPath>
	
		<linearGradient id="SVGID_12_" gradientUnits="userSpaceOnUse" x1="-145.3333" y1="573.693" x2="-144.3333" y2="573.693" gradientTransform="matrix(524.9738 -172.4914 -172.4914 -524.9738 175335.6719 276647)">
		<stop  offset="0" style="stop-color:#C6C6C6"/>
		<stop  offset="0.227" style="stop-color:#EFEEEE"/>
		<stop  offset="0.5" style="stop-color:#A8A8A7"/>
		<stop  offset="0.6378" style="stop-color:#EFEEEE"/>
		<stop  offset="1" style="stop-color:#C6C6C6"/>
	</linearGradient>
	<polygon class="st4" points="237.2,420.3 389.8,370.2 431.8,498 279.2,548.1 	"/>
</g>
<g>
	<defs>
		<path id="SVGID_13_" d="M186.3,366.7l-3.4,4.7h6.9l-7.7,15.4c-0.2,0.3-0.5,0.5-0.8,0.5h-2.3c-0.4,0-0.5-0.2-0.3-0.5l4.8-9.5h-6.2
			l-5.6,11.3c-0.5,1-0.5,1.8,0,2.4c0.5,0.6,1.4,0.9,2.6,0.9h7.5c1.4,0,2.6-0.4,3.7-1.1c1.1-0.7,1.9-1.6,2.4-2.6l10.8-21.5H186.3z"/>
	</defs>
	<clipPath id="SVGID_14_">
		<use xlink:href="#SVGID_13_"  style="overflow:visible;"/>
	</clipPath>
	
		<linearGradient id="SVGID_15_" gradientUnits="userSpaceOnUse" x1="-145.3333" y1="573.6666" x2="-144.3333" y2="573.6666" gradientTransform="matrix(524.9738 -172.4914 -172.4914 -524.9738 175292.8125 276516.5938)">
		<stop  offset="0" style="stop-color:#C6C6C6"/>
		<stop  offset="0.227" style="stop-color:#EFEEEE"/>
		<stop  offset="0.5" style="stop-color:#A8A8A7"/>
		<stop  offset="0.6378" style="stop-color:#EFEEEE"/>
		<stop  offset="1" style="stop-color:#C6C6C6"/>
	</linearGradient>
	<polygon class="st5" points="163.5,369.1 195.8,358.5 206,389.4 173.7,400 	"/>
</g>
<g>
	<defs>
		<polygon id="SVGID_16_" points="202,366.7 189.4,391.8 195.8,391.8 208.4,366.7 		"/>
	</defs>
	<clipPath id="SVGID_17_">
		<use xlink:href="#SVGID_16_"  style="overflow:visible;"/>
	</clipPath>
	
		<linearGradient id="SVGID_18_" gradientUnits="userSpaceOnUse" x1="-145.3333" y1="573.6667" x2="-144.3333" y2="573.6667" gradientTransform="matrix(524.9738 -172.4914 -172.4914 -524.9738 175294.2188 276520.8438)">
		<stop  offset="0" style="stop-color:#C6C6C6"/>
		<stop  offset="0.227" style="stop-color:#EFEEEE"/>
		<stop  offset="0.5" style="stop-color:#A8A8A7"/>
		<stop  offset="0.6378" style="stop-color:#EFEEEE"/>
		<stop  offset="1" style="stop-color:#C6C6C6"/>
	</linearGradient>
	<polygon class="st6" points="182,369.1 206.5,361.1 215.8,389.4 191.3,397.4 	"/>
</g>
<g>
	<defs>
		<path id="SVGID_19_" d="M221.8,366.7l-10.1,20.2c-0.1,0.2-0.2,0.3-0.3,0.4c-0.1,0.1-0.3,0.1-0.6,0.1h-2.2c-0.3,0-0.4,0-0.4-0.1
			c0-0.1,0-0.2,0.1-0.4l10.1-20.2h-6.5l-10.6,21.3c-0.7,1.4-0.8,2.4-0.4,3c0.4,0.6,1.6,0.9,3.4,0.9h6.5c1.8,0,3.3-0.3,4.3-0.9
			c1-0.6,1.9-1.6,2.6-3l10.6-21.3H221.8z"/>
	</defs>
	<clipPath id="SVGID_20_">
		<use xlink:href="#SVGID_19_"  style="overflow:visible;"/>
	</clipPath>
	
		<linearGradient id="SVGID_21_" gradientUnits="userSpaceOnUse" x1="-145.3333" y1="573.6655" x2="-144.3333" y2="573.6655" gradientTransform="matrix(524.9738 -172.4914 -172.4914 -524.9738 175295.5156 276524.8125)">
		<stop  offset="0" style="stop-color:#C6C6C6"/>
		<stop  offset="0.227" style="stop-color:#EFEEEE"/>
		<stop  offset="0.5" style="stop-color:#A8A8A7"/>
		<stop  offset="0.6378" style="stop-color:#EFEEEE"/>
		<stop  offset="1" style="stop-color:#C6C6C6"/>
	</linearGradient>
	<polygon class="st7" points="192.9,369.1 225.6,358.4 235.7,389.4 203.1,400.1 	"/>
</g>
<g>
	<defs>
		<path id="SVGID_22_" d="M241.9,366.7l-3.4,4.7h6.9l-7.7,15.4c-0.2,0.3-0.5,0.5-0.8,0.5h-2.3c-0.4,0-0.5-0.2-0.3-0.5l4.8-9.5h-6.2
			l-5.6,11.3c-0.5,1-0.5,1.8,0,2.4c0.5,0.6,1.4,0.9,2.6,0.9h7.5c1.4,0,2.6-0.4,3.7-1.1c1.1-0.7,1.9-1.6,2.4-2.6l10.8-21.5H241.9z"/>
	</defs>
	<clipPath id="SVGID_23_">
		<use xlink:href="#SVGID_22_"  style="overflow:visible;"/>
	</clipPath>
	
		<linearGradient id="SVGID_24_" gradientUnits="userSpaceOnUse" x1="-145.3333" y1="573.6666" x2="-144.3333" y2="573.6666" gradientTransform="matrix(524.9738 -172.4914 -172.4914 -524.9738 175298.2344 276533.0625)">
		<stop  offset="0" style="stop-color:#C6C6C6"/>
		<stop  offset="0.227" style="stop-color:#EFEEEE"/>
		<stop  offset="0.5" style="stop-color:#A8A8A7"/>
		<stop  offset="0.6378" style="stop-color:#EFEEEE"/>
		<stop  offset="1" style="stop-color:#C6C6C6"/>
	</linearGradient>
	<polygon class="st8" points="219.1,369.1 251.4,358.5 261.5,389.4 229.2,400 	"/>
</g>
<g>
	<defs>
		<polygon id="SVGID_25_" points="257.5,366.7 245,391.8 251.3,391.8 263.9,366.7 		"/>
	</defs>
	<clipPath id="SVGID_26_">
		<use xlink:href="#SVGID_25_"  style="overflow:visible;"/>
	</clipPath>
	
		<linearGradient id="SVGID_27_" gradientUnits="userSpaceOnUse" x1="-145.3333" y1="573.6667" x2="-144.3333" y2="573.6667" gradientTransform="matrix(524.9738 -172.4914 -172.4914 -524.9738 175299.625 276537.3125)">
		<stop  offset="0" style="stop-color:#C6C6C6"/>
		<stop  offset="0.227" style="stop-color:#EFEEEE"/>
		<stop  offset="0.5" style="stop-color:#A8A8A7"/>
		<stop  offset="0.6378" style="stop-color:#EFEEEE"/>
		<stop  offset="1" style="stop-color:#C6C6C6"/>
	</linearGradient>
	<polygon class="st9" points="237.5,369.1 262,361.1 271.3,389.4 246.8,397.4 	"/>
</g>
<g>
	<defs>
		<polygon id="SVGID_28_" points="268.2,366.7 264.2,371.4 268.4,371.4 258.2,391.8 264.7,391.8 274.9,371.4 279.2,371.4 
			279.9,366.7 		"/>
	</defs>
	<clipPath id="SVGID_29_">
		<use xlink:href="#SVGID_28_"  style="overflow:visible;"/>
	</clipPath>
	
		<linearGradient id="SVGID_30_" gradientUnits="userSpaceOnUse" x1="-145.3333" y1="573.6652" x2="-144.3333" y2="573.6652" gradientTransform="matrix(524.9738 -172.4914 -172.4914 -524.9738 175300.7969 276540.875)">
		<stop  offset="0" style="stop-color:#C6C6C6"/>
		<stop  offset="0.227" style="stop-color:#EFEEEE"/>
		<stop  offset="0.5" style="stop-color:#A8A8A7"/>
		<stop  offset="0.6378" style="stop-color:#EFEEEE"/>
		<stop  offset="1" style="stop-color:#C6C6C6"/>
	</linearGradient>
	<polygon class="st10" points="250.7,369.1 277.8,360.2 287.4,389.4 260.3,398.3 	"/>
</g>
<g>
	<defs>
		<path id="SVGID_31_" d="M288.3,366.7c-1.5,0-2.7,0.3-3.7,0.9c-1,0.6-1.7,1.4-2.2,2.4l-4.3,8.5c-0.3,0.6-0.5,1.1-0.5,1.5
			c0,0.4,0.1,0.7,0.4,0.9c0.2,0.2,0.5,0.3,0.9,0.4c0.4,0.1,0.8,0.1,1.3,0.1h3.3c0.4,0,0.7,0,0.9,0.1c0.1,0.1,0.1,0.3,0,0.6l-2.3,4.6
			c-0.2,0.3-0.5,0.5-1,0.5h-6.8l-1.2,4.7h7.8c1.8,0,3.2-0.3,4.2-0.9c1-0.6,1.9-1.6,2.5-2.9l4.1-8.3c0.5-1,0.5-1.6,0.2-2
			c-0.3-0.4-1-0.6-2.1-0.6h-4c-0.3,0-0.5,0-0.7-0.1c-0.1-0.1-0.1-0.3,0-0.5l2.3-4.6c0.2-0.4,0.5-0.6,1.1-0.6h7.2l1.2-4.7H288.3z"/>
	</defs>
	<clipPath id="SVGID_32_">
		<use xlink:href="#SVGID_31_"  style="overflow:visible;"/>
	</clipPath>
	
		<linearGradient id="SVGID_33_" gradientUnits="userSpaceOnUse" x1="-145.3333" y1="573.6666" x2="-144.3334" y2="573.6666" gradientTransform="matrix(524.9631 -172.4879 -172.4879 -524.9631 175299.0156 276540.7188)">
		<stop  offset="0" style="stop-color:#C6C6C6"/>
		<stop  offset="0.227" style="stop-color:#EFEEEE"/>
		<stop  offset="0.5" style="stop-color:#A8A8A7"/>
		<stop  offset="0.6378" style="stop-color:#EFEEEE"/>
		<stop  offset="1" style="stop-color:#C6C6C6"/>
	</linearGradient>
	<polygon class="st11" points="265.6,369.1 294.7,359.5 304.5,389.4 275.4,399 	"/>
</g>
<g>
	<defs>
		<path id="SVGID_34_" d="M311.8,366.7l-10.1,20.2c-0.1,0.2-0.2,0.3-0.3,0.4c-0.1,0.1-0.3,0.1-0.6,0.1h-2.2c-0.3,0-0.4,0-0.4-0.1
			c0-0.1,0-0.2,0.1-0.4l10.1-20.2h-6.5l-10.6,21.3c-0.7,1.4-0.8,2.4-0.4,3c0.4,0.6,1.6,0.9,3.4,0.9h6.5c1.8,0,3.3-0.3,4.3-0.9
			c1-0.6,1.9-1.6,2.6-3l10.6-21.3H311.8z"/>
	</defs>
	<clipPath id="SVGID_35_">
		<use xlink:href="#SVGID_34_"  style="overflow:visible;"/>
	</clipPath>
	
		<linearGradient id="SVGID_36_" gradientUnits="userSpaceOnUse" x1="-145.3333" y1="573.6655" x2="-144.3333" y2="573.6655" gradientTransform="matrix(524.9738 -172.4914 -172.4914 -524.9738 175304.2812 276551.5)">
		<stop  offset="0" style="stop-color:#C6C6C6"/>
		<stop  offset="0.227" style="stop-color:#EFEEEE"/>
		<stop  offset="0.5" style="stop-color:#A8A8A7"/>
		<stop  offset="0.6378" style="stop-color:#EFEEEE"/>
		<stop  offset="1" style="stop-color:#C6C6C6"/>
	</linearGradient>
	<polygon class="st12" points="282.9,369.1 315.5,358.4 325.7,389.4 293.1,400.1 	"/>
</g>
<g>
	<defs>
		<path id="SVGID_37_" d="M332.2,371.1h3.2c0.4,0,0.5,0.2,0.3,0.5l-4.4,8.9c-0.1,0.2-0.2,0.3-0.3,0.4c-0.1,0.1-0.3,0.1-0.6,0.1h-3.2
			L332.2,371.1z M328.1,366.7l-12.6,25.1h6.3l3.3-6.7h5.4c0.9,0,1.7-0.1,2.3-0.3c0.7-0.2,1.3-0.4,1.8-0.7c0.5-0.3,0.9-0.7,1.3-1.1
			c0.3-0.4,0.6-0.8,0.9-1.3l6-12c0.5-0.9,0.5-1.7,0.2-2.2c-0.4-0.6-1.2-0.8-2.4-0.8H328.1z"/>
	</defs>
	<clipPath id="SVGID_38_">
		<use xlink:href="#SVGID_37_"  style="overflow:visible;"/>
	</clipPath>
	
		<linearGradient id="SVGID_39_" gradientUnits="userSpaceOnUse" x1="-145.3333" y1="573.6641" x2="-144.3333" y2="573.6641" gradientTransform="matrix(524.9738 -172.4914 -172.4914 -524.9738 175306.5 276558.25)">
		<stop  offset="0" style="stop-color:#C6C6C6"/>
		<stop  offset="0.227" style="stop-color:#EFEEEE"/>
		<stop  offset="0.5" style="stop-color:#A8A8A7"/>
		<stop  offset="0.6378" style="stop-color:#EFEEEE"/>
		<stop  offset="1" style="stop-color:#C6C6C6"/>
	</linearGradient>
	<polygon class="st13" points="308.1,369.1 340.6,358.4 350.8,389.4 318.2,400.1 	"/>
</g>
<g>
	<defs>
		<path id="SVGID_40_" d="M351.9,371.1h3.1c0.4,0,0.5,0.2,0.4,0.5l-3.8,7.6c-0.2,0.3-0.5,0.5-0.9,0.5h-3.1L351.9,371.1z
			 M347.7,366.7l-12.6,25.1h6.4l4-8h0.8l-0.9,8h6.6l0.7-8c0.9,0,1.8-0.2,2.5-0.7c0.7-0.5,1.2-1,1.5-1.5l5.8-11.7
			c0.5-1,0.5-1.8,0.2-2.4c-0.4-0.6-1.3-0.9-2.8-0.9H347.7z"/>
	</defs>
	<clipPath id="SVGID_41_">
		<use xlink:href="#SVGID_40_"  style="overflow:visible;"/>
	</clipPath>
	
		<linearGradient id="SVGID_42_" gradientUnits="userSpaceOnUse" x1="-145.3333" y1="573.6671" x2="-144.3333" y2="573.6671" gradientTransform="matrix(524.9738 -172.4914 -172.4914 -524.9738 175308.9219 276565.625)">
		<stop  offset="0" style="stop-color:#C6C6C6"/>
		<stop  offset="0.227" style="stop-color:#EFEEEE"/>
		<stop  offset="0.5" style="stop-color:#A8A8A7"/>
		<stop  offset="0.6378" style="stop-color:#EFEEEE"/>
		<stop  offset="1" style="stop-color:#C6C6C6"/>
	</linearGradient>
	<polygon class="st14" points="327.7,369.1 360.3,358.4 370.4,389.4 337.9,400.1 	"/>
</g>
<g>
	<defs>
		<path id="SVGID_43_" d="M363.8,387.3c0-0.1,0-0.2,0.1-0.4l7.7-15.3c0.2-0.3,0.4-0.5,0.8-0.5h2.5c0.4,0,0.5,0.2,0.3,0.5l-7.7,15.3
			c-0.1,0.2-0.2,0.3-0.3,0.4c-0.1,0.1-0.3,0.1-0.6,0.1h-2.4C364,387.4,363.9,387.4,363.8,387.3 M371.9,366.7c-1.5,0-2.7,0.3-3.7,0.9
			c-1,0.6-1.7,1.4-2.2,2.4l-9.2,18.3c-0.2,0.5-0.4,0.9-0.5,1.4c-0.1,0.4,0,0.8,0.2,1.1c0.2,0.3,0.5,0.6,1,0.8c0.5,0.2,1.2,0.3,2,0.3
			h7.4c0.9,0,1.7-0.1,2.3-0.3c0.7-0.2,1.3-0.5,1.8-0.8c0.5-0.3,0.9-0.7,1.3-1.1c0.4-0.4,0.7-0.9,0.9-1.4l9.2-18.3
			c0.5-1,0.5-1.8,0.2-2.4c-0.4-0.6-1.3-0.9-2.8-0.9H371.9z"/>
	</defs>
	<clipPath id="SVGID_44_">
		<use xlink:href="#SVGID_43_"  style="overflow:visible;"/>
	</clipPath>
	
		<linearGradient id="SVGID_45_" gradientUnits="userSpaceOnUse" x1="-145.3333" y1="573.6666" x2="-144.3333" y2="573.6666" gradientTransform="matrix(524.9738 -172.4914 -172.4914 -524.9738 175310.8281 276571.4375)">
		<stop  offset="0" style="stop-color:#C6C6C6"/>
		<stop  offset="0.227" style="stop-color:#EFEEEE"/>
		<stop  offset="0.5" style="stop-color:#A8A8A7"/>
		<stop  offset="0.6378" style="stop-color:#EFEEEE"/>
		<stop  offset="1" style="stop-color:#C6C6C6"/>
	</linearGradient>
	<polygon class="st15" points="348.9,369.1 380.4,358.8 390.5,389.4 358.9,399.7 	"/>
</g>
<g>
	<defs>
		<path id="SVGID_46_" d="M360.3,165.3c-0.4,0.5-1.7,1.7-2.1,2.1c-0.1,0.1-0.1,0.2,0,0.3c0.4,0.5,1.7,1.7,2.1,2.1
			c0.1,0.1,0.2,0.1,0.3,0h0c0.4-0.4,1.7-1.7,2.1-2.1c0.1-0.1,0.1-0.2,0-0.3c-0.5-0.5-1.7-1.7-2.1-2.1c0,0-0.1-0.1-0.1-0.1
			C360.4,165.3,360.4,165.3,360.3,165.3"/>
	</defs>
	<clipPath id="SVGID_47_">
		<use xlink:href="#SVGID_46_"  style="overflow:visible;"/>
	</clipPath>
	
		<linearGradient id="SVGID_48_" gradientUnits="userSpaceOnUse" x1="-145.3333" y1="573.6666" x2="-144.3333" y2="573.6666" gradientTransform="matrix(524.9738 -172.4914 -172.4914 -524.9738 175247.1875 276377.75)">
		<stop  offset="0" style="stop-color:#C6C6C6"/>
		<stop  offset="0.227" style="stop-color:#EFEEEE"/>
		<stop  offset="0.5" style="stop-color:#A8A8A7"/>
		<stop  offset="0.6378" style="stop-color:#EFEEEE"/>
		<stop  offset="1" style="stop-color:#C6C6C6"/>
	</linearGradient>
	<polygon class="st16" points="356.7,165.7 362.3,163.9 364.2,169.5 358.6,171.3 	"/>
</g>
<g>
	<defs>
		<path id="SVGID_49_" d="M210.8,154.4c0,0-3.9,3.3-3.9,3.2c-0.1,0.1-0.4,0.3-0.4,0.5c-0.1,0.1-0.1,0.4-0.2,0.7
			c-0.5,4-0.8,8.1-1,12.4c-0.1,2.1-0.1,5.5-0.2,8.4c0,0.2,0,0.3,0.1,0.5c0.1,0.1,0.3,0.3,0.4,0.3l3.3,1.9c0.1,0.1,0.2,0.1,0.3,0.1
			c0.1,0,0.1-0.1,0.1-0.3l0-0.8l0-0.4c0-2.8,2-4.9,4.7-4.9c1.9,0,2.9,0.7,3.2,2.2c0.2,1,0,2.1-0.7,3.1c-1.1,1.6-2.6,2.7-6.4,2.8
			c-1.8,0-7.1-0.4-8.6-3.4c-0.1-0.2-0.2-0.4-0.2-0.5c0-0.1-0.1-0.2-0.1-0.3c-0.1,0-0.1,0.1-0.1,0.3c0,0.3,0,0.5,0,0.9
			c0,0.3,0,0.6,0,0.9c0.2,3.2,1.1,4.3,2.1,5.2c1.8,1.5,4.6,1.7,7.4,1.6c3.2,0,6.1-1.4,7.2-2.3c3.4-2.8,3.8-6.6,3.5-8.2
			c-0.8-4.7-4.5-5.2-6-5.2c-2.4,0-4.5,0.9-5.6,2.4l-0.3,0.4l0-0.5c0-1.4,0.1-2.8,0.2-4.1c0.4-8.4,1.3-14.8,1.6-16.6c0,0,0-0.2,0-0.3
			c0,0,0,0-0.1,0C210.9,154.3,210.8,154.4,210.8,154.4"/>
	</defs>
	<clipPath id="SVGID_50_">
		<use xlink:href="#SVGID_49_"  style="overflow:visible;"/>
	</clipPath>
	
		<linearGradient id="SVGID_51_" gradientUnits="userSpaceOnUse" x1="-145.3333" y1="573.6669" x2="-144.3333" y2="573.6669" gradientTransform="matrix(524.9738 -172.4914 -172.4914 -524.9738 175233.875 276337.1875)">
		<stop  offset="0" style="stop-color:#C6C6C6"/>
		<stop  offset="0.227" style="stop-color:#EFEEEE"/>
		<stop  offset="0.5" style="stop-color:#A8A8A7"/>
		<stop  offset="0.6378" style="stop-color:#EFEEEE"/>
		<stop  offset="1" style="stop-color:#C6C6C6"/>
	</linearGradient>
	<polygon class="st17" points="190.9,157.7 219.6,148.3 231.8,185.4 203.1,194.8 	"/>
</g>
<g>
	<defs>
		<path id="SVGID_52_" d="M360,171.7c-0.9,0.7-3.2,2.7-4,3.3c-0.1,0.1-0.1,0.1-0.2,0.2c0,0.1,0,0.3,0,0.4c-0.1,1.7-0.1,7.5-0.1,8.5
			c0,1.1,0.3,1.7,0.8,2.4c0.1,0.2,0.2,0.3,0.3,0.4l0.2,0.2c0.7,0.7,1.7,1.1,2.6,1.1l0.6,0c1-0.1,2.2-0.4,3.5-1.1l0,0
			c0.1-0.1,0.4-0.2,0.3-0.3c0-0.1-0.2,0-0.2,0l-0.2,0c-1.7,0.3-2.5-0.1-3-0.5c-0.4-0.3-0.6-1.1-0.7-2.5v-2.6v-0.4c0-3,0.1-6,0.2-9
			c0-0.2,0-0.3,0-0.3c0,0,0,0,0,0C360.2,171.5,360.1,171.6,360,171.7"/>
	</defs>
	<clipPath id="SVGID_53_">
		<use xlink:href="#SVGID_52_"  style="overflow:visible;"/>
	</clipPath>
	
		<linearGradient id="SVGID_54_" gradientUnits="userSpaceOnUse" x1="-145.3333" y1="573.667" x2="-144.3333" y2="573.667" gradientTransform="matrix(524.9738 -172.4914 -172.4914 -524.9738 175250.8594 276388.9062)">
		<stop  offset="0" style="stop-color:#C6C6C6"/>
		<stop  offset="0.227" style="stop-color:#EFEEEE"/>
		<stop  offset="0.5" style="stop-color:#A8A8A7"/>
		<stop  offset="0.6378" style="stop-color:#EFEEEE"/>
		<stop  offset="1" style="stop-color:#C6C6C6"/>
	</linearGradient>
	<polygon class="st18" points="350.8,173.2 363.4,169 369.2,186.7 356.6,190.8 	"/>
</g>
<g>
	<defs>
		<path id="SVGID_55_" d="M317.9,184.9c-1.5-0.2-2.4-0.8-2.4-1.7c0-0.9,0.7-1.5,2.1-1.5c1-0.1,2.2,0.7,3.8,2.1l0.1,0.1l-0.1,0.1
			c-0.8,0.6-1.8,1-2.8,1C318.4,185,318.2,185,317.9,184.9 M289.2,153.8c0,0-4,3.4-4,3.3c-0.1,0.1-0.4,0.4-0.4,0.5
			c-0.1,0.1-0.2,0.4-0.2,0.7l0,0.1c-0.4,3.1-0.8,7.2-1,12.2c-0.3,8-0.3,11.9-0.2,15.9c0,1,0.6,1.4,0.9,1.4c0.1,0,1.1,0.3,1.5-0.5
			c2.3-4.4,4-6.8,7.2-10c0.1-0.1,0.3-0.3,0.5-0.2c0.2,0.1,0.2,0.3,0.2,0.5l-0.1,1.3c0,0.6-0.1,1.1-0.1,2.4c0,1.3,0.1,4.3,2.1,5.5
			c2.1,1.2,12.7,1,12.7,1c3.4,0,4-0.6,4.6-1.4c0.3-0.4,0.5-0.8,0.7-1.2c0.7,1.7,2.4,2.5,2.5,2.5c0,0,0.9,0.4,2.4,0.4
			c1.2,0,2.4-0.3,3.7-0.9c0.4-0.2,0.9-0.6,1.4-1l0.1-0.1l0.1,0.1c0.4,0.4,1,0.7,1.6,1.1c1.6,0.9,4.6,0.8,4.6,0.8
			c3-0.1,4-1.4,4.2-2.3c0-0.2,0.1-0.4,0.1-0.6c0.4,0.8,0.8,1.4,1.4,1.8c1.8,1.5,4.6,1.7,7.4,1.6c3.2,0,6.1-1.4,7.2-2.3
			c3.5-2.8,3.8-6.6,3.5-8.2c-0.8-4.7-4.5-5.2-6-5.2c-2.4,0-4.5,0.9-5.6,2.4l-0.3,0.4l0-0.5c0-1.4,0.1-2.8,0.2-4.1
			c0.4-8.4,1.3-14.9,1.6-16.6c0,0,0-0.2-0.1-0.3c-0.1-0.1-0.3,0.1-0.3,0.1c0,0-3.9,3.3-3.9,3.2c-0.1,0.1-0.4,0.4-0.4,0.5
			c-0.1,0.1-0.2,0.4-0.2,0.7c-0.5,4-0.8,8.1-1,12.4c-0.1,2.1-0.2,5.5-0.2,8.4c0,0.2,0,0.3,0.1,0.5c0.1,0.1,0.3,0.3,0.4,0.3l3.4,1.9
			c0.1,0.1,0.2,0.1,0.3,0.1c0.1,0,0.1-0.1,0.1-0.3v-0.8l0-0.4c0-2.8,2-4.9,4.7-4.9c1.8,0,3,0.7,3.2,2.2c0.2,1-0.1,2.1-0.7,3.1
			c-1.2,1.6-2.7,2.7-6.4,2.8c-1.8,0-7.1-0.4-8.6-3.4c-0.1-0.2-0.2-0.3-0.2-0.4c-0.1-0.1-0.1-0.3-0.2-0.3c-0.1,0-0.1,0.1-0.1,0.3
			c0,0.1-0.1,0.3-0.1,0.4c-0.1,0.9-0.6,2.1-1.2,2.6c-0.7,0.6-2.3,0.7-3.5,0.5c-0.6-0.1-1.7-0.3-2.7-0.6l-0.2-0.1l0.1-0.1
			c1.1-2.6,1.1-5.7,0.1-7.3c-1-1.6-2.7-2.7-4.7-2.9c-1.9-0.2-4.7,0.1-6.2,1.3c-0.8,0.6-1,2.1-1.1,3.1c0,0.2,0,0.4,0,0.4
			c0.1,0,0.2-0.1,0.3-0.2c0.7-0.6,1.9-1.3,3.1-1.6c1.5-0.3,2.9,0,3.5,0.4c1.7,0.9,2,2.5,2,3c0.1,0.5,0,1-0.1,1.6l0,0.3l-0.2-0.2
			c-2.2-2.1-3.6-2.7-5.5-2.4c-0.9,0.2-2,0.7-2.8,1.7c-0.5,0.5-1.7,2.2-2.9,2.7c-2.3,0.9-12.4,0.5-13.9-0.4c-0.9-0.5-0.7-1.8-0.7-2.3
			v-0.1c0-0.3,0.2-3.1,0.3-4.6c0.1-1.1-0.1-1.9-0.6-2.3c-0.5-0.4-1.2-0.6-1.7-0.6c-0.5,0-1.3,0.2-2.3,1.1c-3,2.6-4.3,4.5-4.9,5.4
			c-0.1,0.1-0.2,0.3-0.3,0.3c-0.2,0.1-0.2-0.2-0.1-0.3c0-2.1,0.3-8,0.3-8.3c0.4-8.4,1.3-14.9,1.6-16.6l0-0.1c0-0.1,0-0.3,0-0.3
			c0,0,0,0-0.1,0C289.3,153.7,289.2,153.7,289.2,153.8"/>
	</defs>
	<clipPath id="SVGID_56_">
		<use xlink:href="#SVGID_55_"  style="overflow:visible;"/>
	</clipPath>
	
		<linearGradient id="SVGID_57_" gradientUnits="userSpaceOnUse" x1="-145.3333" y1="573.6658" x2="-144.3333" y2="573.6658" gradientTransform="matrix(524.9738 -172.4914 -172.4914 -524.9738 175244.0469 276368.1562)">
		<stop  offset="0" style="stop-color:#C6C6C6"/>
		<stop  offset="0.227" style="stop-color:#EFEEEE"/>
		<stop  offset="0.5" style="stop-color:#A8A8A7"/>
		<stop  offset="0.6378" style="stop-color:#EFEEEE"/>
		<stop  offset="1" style="stop-color:#C6C6C6"/>
	</linearGradient>
	<polygon class="st19" points="272.9,157.1 347.3,132.6 364.6,185.3 290.2,209.8 	"/>
</g>
<g>
	<defs>
		<path id="SVGID_58_" d="M258.2,156.2c-0.2,2.8-1,12-1.1,14.3c-0.1,2.1-0.1,5.5-0.2,8.4c0,0.2,0,0.3,0.1,0.5
			c0.1,0.1,0.3,0.3,0.4,0.3l3.4,1.9c0.1,0.1,0.2,0.1,0.3,0.1c0.1,0,0.1-0.1,0.1-0.4v-0.7l0-0.4l0-5l0-0.7c0-1.3,0.1-2.8,0.1-4.1
			c0.1-2.1,0.3-4.2,0.4-6.3h0c0-0.5,0.1-1.4,0.5-2c0.5-0.8,1.1-1,1.7-1.1c0.6-0.1,2.4-0.3,5,0.7c2,0.8,3.8,2.1,4.8,3.5
			c0.8,1.1,1.4,2.5,1.6,3.7c0.3,1.7,0.4,5.5-1.2,8.8c-1.4,2.7-3.7,4.5-7,5.3c-1,0.2-2.5,0.4-4.3,0.5c-1.8,0-8.7-0.9-10.2-4.5
			c-0.2-0.4-0.2-0.5-0.4-0.5c-0.2,0-0.2,0.2-0.3,0.5c-0.2,0.9-0.5,1.9-0.7,2.4c-0.4,0.6-0.9,2.1-6.2,2c-3.7-0.1-5.2-0.1-6.7-1
			c-0.6-0.4-0.7-1.2-0.7-1.7c0-0.2,0.4-7.2,0.4-8c0-0.3,0.1-0.5-0.1-0.5c-0.1,0-0.3,0.1-0.4,0.2c-0.7,0.6-1.9,1.6-2.6,2.2
			c-0.3,0.2-0.4,0.3-0.5,0.5c-0.1,0.2-0.1,0.4-0.1,0.6c-0.1,2.2-0.3,6.9-0.3,6.9l0,0c-0.7,0.5-2.2,0.7-2.9,0.8c-0.7,0-3.3,0.1-4.9-1
			c-0.5-0.3-0.9-0.8-1-1.4c-0.1-0.7,0-1.4,0.3-2c0.5-0.8,2.8-4.1,2.8-4.1c0.2-0.4,0.2-0.5,0.2-0.6c0-0.2-0.2-0.3-0.4-0.5
			c-0.3-0.2-0.8-0.6-1.4-1c0,0-0.4-0.3-0.5-0.3c-0.2-0.1-0.4-0.1-0.5,0.1c-0.7,0.6-3.1,4.3-2.9,8.4c0.1,2.4,1,4,2.1,5
			c1.1,1,3,2.1,6.2,2c1.5-0.1,2.9-0.7,4-1.7l0.1-0.1l0.1,0.1c0.3,0.3,0.6,0.6,0.9,0.7c2.1,1.2,6.9,1.2,9.4,1.2
			c5.5-0.1,7.1-1.7,7.6-3.2c0.3,0.6,0.7,1,1.1,1.4c2.1,1.8,6.3,2.2,8.6,2.2c3.5,0,6.8-0.4,8.8-1.2c1.9-0.7,4.1-1.8,6.1-4.5
			c2.1-2.6,3.2-6.4,3.1-10.5c0-4-0.8-6.4-2.9-9.6c-1.6-2.5-3.9-4.2-7.1-5.5c-1.6-0.6-3.4-0.9-5.9-1c0,0-2.8-0.1-4.4-0.2
			c-0.9-0.1-1.6-0.4-2-0.7c-0.2-0.2-0.3-0.3-0.5-0.3C258.2,155.4,258.2,155.8,258.2,156.2"/>
	</defs>
	<clipPath id="SVGID_59_">
		<use xlink:href="#SVGID_58_"  style="overflow:visible;"/>
	</clipPath>
	
		<linearGradient id="SVGID_60_" gradientUnits="userSpaceOnUse" x1="-145.3333" y1="573.6731" x2="-144.3333" y2="573.6731" gradientTransform="matrix(524.9738 -172.4914 -172.4914 -524.9738 175239.0625 276352.9688)">
		<stop  offset="0" style="stop-color:#C6C6C6"/>
		<stop  offset="0.227" style="stop-color:#EFEEEE"/>
		<stop  offset="0.5" style="stop-color:#A8A8A7"/>
		<stop  offset="0.6378" style="stop-color:#EFEEEE"/>
		<stop  offset="1" style="stop-color:#C6C6C6"/>
	</linearGradient>
	<polygon class="st20" points="212.6,158.6 275.4,138 291.1,185.6 228.3,206.3 	"/>
</g>
<g>
	<defs>
		<path id="SVGID_61_" d="M191.3,179.2c-0.7-0.9-1.3-1.7,0-2.9c0.4-0.3,1-0.7,1.9-1c0.4,2.1,1.2,5.8,1.3,6.1
			C194.1,181.3,192.3,180.3,191.3,179.2 M189.8,155.8c-0.6,0.5-0.9,1-1.2,1.9c-0.6,1.5-1.7,3.8-3.1,6.8c-0.9,2-2,4.2-3.2,6.7
			c-1.5,3.1-5.3,10.4-5.7,11.2c-0.3,0.5-0.6,0.9-1.2,1.2c-0.5,0.3-1.9,0.4-2.6,0.1c-1.1-0.5-1.6-1.2-1.8-2c-0.2-0.5-0.1-1.2-0.1-1.3
			c0.1-1.3,1.1-2.2,1.2-2.3c0.1-0.1,0.1-0.1,0.1-0.2c0-0.1-0.1-0.1-0.2,0c-1.5,0.4-3.1,2-3.3,3.9c0,0.1,0,0.3,0,0.4
			c0,1.9,1.2,3.9,3,4.9c1,0.6,5,2.2,7.3-0.3c0.8-0.8,1.6-2.3,2.8-4.6c1.2-2.3,3.9-7.9,4.4-8.9c0.5-1,3.1-6.4,4.5-9.1l0.2-0.4
			l1.5,7.5c-3.2,1.2-4.7,3.1-5.3,5.7c-0.7,2.8,1.9,6.8,8.6,10c0.6,0.3,3.5,1.3,4,1.4c1,0.1,1.1-0.3,1.2-0.6c0.1-0.3-0.1-1.2-0.3-1.8
			c-0.2-0.8-2.1-8.3-2.8-11.5c1.9-0.1,3.5,0.2,4.4,1.5c0.8,1,1,2,1,2.7c0,0.4,0,0.4,0,0.4c0.1,0,0.2,0,0.4-0.3
			c0.6-0.8,1.5-2.5,0.3-5c-1.1-2.5-3.6-3.8-7.1-3.4c-0.8-3.5-3.3-13.8-3.4-14c0-0.2-0.2-0.7-0.5-0.8c-0.3-0.2-0.7-0.2-1-0.2
			C191.5,155.3,190.4,155.3,189.8,155.8"/>
	</defs>
	<clipPath id="SVGID_62_">
		<use xlink:href="#SVGID_61_"  style="overflow:visible;"/>
	</clipPath>
	
		<linearGradient id="SVGID_63_" gradientUnits="userSpaceOnUse" x1="-145.3333" y1="573.671" x2="-144.3333" y2="573.671" gradientTransform="matrix(524.9738 -172.4914 -172.4914 -524.9738 175232.3906 276332.7188)">
		<stop  offset="0" style="stop-color:#C6C6C6"/>
		<stop  offset="0.227" style="stop-color:#EFEEEE"/>
		<stop  offset="0.5" style="stop-color:#A8A8A7"/>
		<stop  offset="0.6378" style="stop-color:#EFEEEE"/>
		<stop  offset="1" style="stop-color:#C6C6C6"/>
	</linearGradient>
	<polygon class="st21" points="158.6,158.6 201.5,144.5 215.1,185.9 172.2,200 	"/>
</g>
<g>
	<defs>
		<path id="SVGID_64_" d="M229.9,167.6c-0.4,0.4-1.1,1.3-1.6,1.7c-0.1,0.2-0.2,0.2-0.1,0.3c0,0.1,0.1,0.2,0.2,0.2
			c0.7,0.5,2,1.4,2.6,2c0.6,0.7,0.8,1.5,0.9,2.2c0,0.2,0,0.2,0,0.3c0,0.1,0,0.3,0.1,0.4c0.1,0,0.2-0.1,0.2-0.2
			c0.3-0.5,0.7-1.4,0.9-2.4c0.1-0.3,0.1-0.6,0.1-0.9c-0.1-1.3-0.7-2-1-2.2c-0.3-0.3-1.2-1-1.7-1.4c-0.1-0.1-0.1-0.1-0.3-0.1
			C230,167.4,230,167.5,229.9,167.6"/>
	</defs>
	<clipPath id="SVGID_65_">
		<use xlink:href="#SVGID_64_"  style="overflow:visible;"/>
	</clipPath>
	
		<linearGradient id="SVGID_66_" gradientUnits="userSpaceOnUse" x1="-145.3333" y1="573.6669" x2="-144.3333" y2="573.6669" gradientTransform="matrix(524.9738 -172.4914 -172.4914 -524.9738 175235.5938 276342.4375)">
		<stop  offset="0" style="stop-color:#C6C6C6"/>
		<stop  offset="0.227" style="stop-color:#EFEEEE"/>
		<stop  offset="0.5" style="stop-color:#A8A8A7"/>
		<stop  offset="0.6378" style="stop-color:#EFEEEE"/>
		<stop  offset="1" style="stop-color:#C6C6C6"/>
	</linearGradient>
	<polygon class="st22" points="226,168.1 232.6,165.9 235.3,174 228.6,176.2 	"/>
</g>
<g>
	<defs>
		<path id="SVGID_67_" d="M304.3,175.3c-0.4,0.4-1.7,1.7-2.1,2.1c-0.1,0.1-0.1,0.2,0,0.3c0.5,0.4,1.7,1.7,2.1,2.1
			c0.1,0.1,0.2,0.1,0.3,0c0.4-0.4,1.7-1.7,2.1-2.1c0.1-0.1,0.1-0.2,0-0.3c-0.4-0.5-1.7-1.7-2.1-2.1c0,0-0.1-0.1-0.2-0.1
			C304.4,175.2,304.3,175.2,304.3,175.3"/>
	</defs>
	<clipPath id="SVGID_68_">
		<use xlink:href="#SVGID_67_"  style="overflow:visible;"/>
	</clipPath>
	
		<linearGradient id="SVGID_69_" gradientUnits="userSpaceOnUse" x1="-145.3333" y1="573.6666" x2="-144.3333" y2="573.6666" gradientTransform="matrix(524.9738 -172.4914 -172.4914 -524.9738 175244.6875 276370.125)">
		<stop  offset="0" style="stop-color:#C6C6C6"/>
		<stop  offset="0.227" style="stop-color:#EFEEEE"/>
		<stop  offset="0.5" style="stop-color:#A8A8A7"/>
		<stop  offset="0.6378" style="stop-color:#EFEEEE"/>
		<stop  offset="1" style="stop-color:#C6C6C6"/>
	</linearGradient>
	<polygon class="st23" points="300.7,175.7 306.3,173.8 308.2,179.5 302.5,181.3 	"/>
</g>
<g>
	<defs>
		<polygon id="SVGID_70_" points="394.7,345.5 393.9,347.1 396.4,347.1 393.1,353.5 395,353.5 398.3,347.1 400.7,347.1 401.5,345.5 
					"/>
	</defs>
	<clipPath id="SVGID_71_">
		<use xlink:href="#SVGID_70_"  style="overflow:visible;"/>
	</clipPath>
	
		<linearGradient id="SVGID_72_" gradientUnits="userSpaceOnUse" x1="-145.3333" y1="573.6653" x2="-144.3333" y2="573.6653" gradientTransform="matrix(524.9738 -172.4914 -172.4914 -524.9738 175304.4844 276552.0938)">
		<stop  offset="0" style="stop-color:#C6C6C6"/>
		<stop  offset="0.227" style="stop-color:#EFEEEE"/>
		<stop  offset="0.5" style="stop-color:#A8A8A7"/>
		<stop  offset="0.6378" style="stop-color:#EFEEEE"/>
		<stop  offset="1" style="stop-color:#C6C6C6"/>
	</linearGradient>
	<polygon class="st24" points="390.8,346.3 400.6,343 403.8,352.7 394,355.9 	"/>
</g>
<g>
	<defs>
		<polygon id="SVGID_73_" points="408.1,345.5 404.2,350.3 405.2,345.5 402.3,345.5 398.3,353.5 399.8,353.5 403.1,347 401.8,353.5 
			403.1,353.5 408.4,347 405.1,353.5 407,353.5 411,345.5 		"/>
	</defs>
	<clipPath id="SVGID_74_">
		<use xlink:href="#SVGID_73_"  style="overflow:visible;"/>
	</clipPath>
	
		<linearGradient id="SVGID_75_" gradientUnits="userSpaceOnUse" x1="-145.3333" y1="573.6667" x2="-144.3333" y2="573.6667" gradientTransform="matrix(524.9738 -172.4914 -172.4914 -524.9738 175305.4375 276555)">
		<stop  offset="0" style="stop-color:#C6C6C6"/>
		<stop  offset="0.227" style="stop-color:#EFEEEE"/>
		<stop  offset="0.5" style="stop-color:#A8A8A7"/>
		<stop  offset="0.6378" style="stop-color:#EFEEEE"/>
		<stop  offset="1" style="stop-color:#C6C6C6"/>
	</linearGradient>
	<polygon class="st25" points="395.9,346.3 409.8,341.7 413.4,352.7 399.5,357.3 	"/>
</g>
<g>
	<defs>
		<path id="SVGID_76_" d="M135.2,228.7h26.6c2.9,0,3.9,1,2.9,3l-4.6,9.1l-22.4,44.9c-0.6,1.1-1.2,1.9-2.1,2.4
			c-0.8,0.5-2.2,0.7-4.2,0.7h-26.3L135.2,228.7z M104.1,201.9L28.2,353.4h46.6h0.3l19.7-39.4H125l-19.7,39.4h46.9l66.5-133
			c0.5-1,0.9-2,1.2-3c1.4-4.2,0.8-7.7-1.7-10.5c-3.1-3.4-9.5-5.1-19.1-5.1H104.1z"/>
	</defs>
	<clipPath id="SVGID_77_">
		<use xlink:href="#SVGID_76_"  style="overflow:visible;"/>
	</clipPath>
	
		<linearGradient id="SVGID_78_" gradientUnits="userSpaceOnUse" x1="-145.3333" y1="573.6729" x2="-144.3333" y2="573.6729" gradientTransform="matrix(347.2731 312.3127 312.3127 -347.2731 -128655.5 244811.5469)">
		<stop  offset="0" style="stop-color:#C6C6C6"/>
		<stop  offset="0.227" style="stop-color:#EFEEEE"/>
		<stop  offset="0.5" style="stop-color:#A8A8A7"/>
		<stop  offset="0.6378" style="stop-color:#EFEEEE"/>
		<stop  offset="1" style="stop-color:#C6C6C6"/>
	</linearGradient>
	<polygon class="st26" points="114.6,105.9 296.7,269.6 135,449.4 -47.1,285.7 	"/>
</g>
<g>
	<defs>
		<path id="SVGID_79_" d="M445,228.8h26.6c2.9,0,3.9,1,2.9,3l-27,54c-0.6,1.1-1.3,1.9-2.1,2.4c-0.8,0.5-2.2,0.7-4.2,0.7H415
			L445,228.8z M413.9,202l-75.9,151.5H385l19.7-39.4h42.4c6.2,0,11.7-0.5,16.5-1.4c0.1,0,0.3,0,0.4-0.1c0.2,0,0.5-0.1,0.7-0.1
			c5-1.1,9.3-2.5,12.9-4.3c0.8-0.4,1.5-0.8,2.2-1.2c2.6-1.5,4.8-3.3,6.5-5.2c2.2-2.5,4.1-5.2,5.6-8.1l36.6-73.2
			c2.8-5.6,2.7-10.1-0.5-13.5c-3.1-3.4-9.5-5.1-19.1-5.1H413.9z"/>
	</defs>
	<clipPath id="SVGID_80_">
		<use xlink:href="#SVGID_79_"  style="overflow:visible;"/>
	</clipPath>
	
		<linearGradient id="SVGID_81_" gradientUnits="userSpaceOnUse" x1="-145.3333" y1="573.673" x2="-144.3333" y2="573.673" gradientTransform="matrix(347.2731 312.3127 312.3127 -347.2731 -128516.9688 244657.5781)">
		<stop  offset="0" style="stop-color:#C6C6C6"/>
		<stop  offset="0.227" style="stop-color:#EFEEEE"/>
		<stop  offset="0.5" style="stop-color:#A8A8A7"/>
		<stop  offset="0.6378" style="stop-color:#EFEEEE"/>
		<stop  offset="1" style="stop-color:#C6C6C6"/>
	</linearGradient>
	<polygon class="st27" points="424.5,105.9 606.7,269.8 444.9,449.6 262.7,285.8 	"/>
</g>
<g>
	<defs>
		<path id="SVGID_82_" d="M259,201.9l-14.1,28.2h77l-46.5,93c-1,2.1-3,3.1-5.9,3.1h-20.8c-2.9,0-3.8-1-2.9-2.9l17.3-34.4h-47.5
			L192.9,334c-3,6-2.4,10.7,1.7,14.2c4.1,3.5,11,5.2,20.5,5.2h59.3c10.7,0,19.8-2.1,27.5-6.4c7.7-4.2,13.1-9.4,16.1-15.4l65-129.8
			H259z"/>
	</defs>
	<clipPath id="SVGID_83_">
		<use xlink:href="#SVGID_82_"  style="overflow:visible;"/>
	</clipPath>
	
		<linearGradient id="SVGID_84_" gradientUnits="userSpaceOnUse" x1="-145.3333" y1="573.6591" x2="-144.3333" y2="573.6591" gradientTransform="matrix(347.2731 312.3127 312.3127 -347.2731 -128578.9141 244726.3906)">
		<stop  offset="0" style="stop-color:#C6C6C6"/>
		<stop  offset="0.227" style="stop-color:#EFEEEE"/>
		<stop  offset="0.5" style="stop-color:#A8A8A7"/>
		<stop  offset="0.6378" style="stop-color:#EFEEEE"/>
		<stop  offset="1" style="stop-color:#C6C6C6"/>
	</linearGradient>
	<polygon class="st28" points="276.2,105.9 458.3,269.6 296.6,449.4 114.6,285.7 	"/>
</g>
</svg>
