<?xml version="1.0" encoding="UTF-8"?>
<svg width="143px" height="48px" viewBox="0 0 143 48" version="1.1" xmlns="http://www.w3.org/2000/svg" xmlns:xlink="http://www.w3.org/1999/xlink">
    <!-- Generator: Sketch 51.2 (57519) - http://www.bohemiancoding.com/sketch -->
    <title>HH Logo Horizontal White</title>
    <desc>Created with Sketch.</desc>
    <defs>
        <polygon id="path-1" points="0.321852143 0.858485106 10.4022286 0.858485106 10.4022286 13.3486979 0.321852143 13.3486979"></polygon>
        <polygon id="path-3" points="0.815314772 1.02035745 10.6601469 1.02035745 10.6601469 10.212766 0.815314772 10.212766"></polygon>
    </defs>
    <g id="Symbols" stroke="none" stroke-width="1" fill="none" fill-rule="evenodd">
        <g id="Menu/Structure" transform="translate(-25.000000, -16.000000)">
            <g id="Logo/Horizontal-White" transform="translate(25.000000, 16.000000)">
                <polygon id="Fill-1" fill="#FFFFFF" points="11.5824893 32.9757957 1.42029643 27.0554553 11.5824893 21.1340936"></polygon>
                <polygon id="Fill-2" fill="#FFFFFF" points="34.8928171 33.8249872 23.3108386 27.0549447 34.8928171 20.2849021"></polygon>
                <polygon id="Fill-3" fill="#FFFFFF" points="23.1892886 26.3269787 12.7206671 20.5628936 23.1892886 14.364766"></polygon>
                <polygon id="Fill-4" fill="#FFFFFF" points="11.5824893 6.74522553 23.3095107 13.5152681 11.5824893 20.2853106"></polygon>
                <polygon id="Fill-5" fill="#FFFFFF" points="23.3099193 40.5959489 11.5828979 33.8259064 23.3099193 27.0548426"></polygon>
                <polygon id="Fill-6" fill="#FFFFFF" points="0 27.0554553 11.5819786 20.2854128 0 13.5153702"></polygon>
                <polygon id="Fill-7" fill="#FFFFFF" points="0 40.500766 11.5819786 47.2973617 11.5819786 33.8257021 0 27.0556596"></polygon>
                <polygon id="Fill-8" fill="#FFFFFF" points="23.3103279 0.000306382979 23.3103279 13.5414128 34.891285 20.310434 34.891285 6.77034894"></polygon>
                <g id="Group-47" stroke-width="1" transform="translate(41.878571, 17.726809)">
                    <path d="M0.395599286,4.42529362 C0.395599286,4.2516766 0.551877857,4.09542128 0.725520714,4.09542128 L1.87054214,4.09542128 C2.06154929,4.09542128 2.20046357,4.2516766 2.20046357,4.42529362 L2.20046357,9.2651234 L8.54966357,9.2651234 L8.54966357,4.42529362 C8.54966357,4.2516766 8.68857786,4.09542128 8.879585,4.09542128 L10.0246064,4.09542128 C10.1982493,4.09542128 10.3545279,4.2516766 10.3545279,4.42529362 L10.3545279,15.9095489 C10.3545279,16.0821447 10.1982493,16.2394213 10.0246064,16.2394213 L8.879585,16.2394213 C8.68857786,16.2394213 8.54966357,16.0821447 8.54966357,15.9095489 L8.54966357,10.8961021 L2.20046357,10.8961021 L2.20046357,15.9095489 C2.20046357,16.0821447 2.06154929,16.2394213 1.87054214,16.2394213 L0.725520714,16.2394213 C0.551877857,16.2394213 0.395599286,16.0821447 0.395599286,15.9095489 L0.395599286,4.42529362 Z" id="Fill-9" fill="#FFFFFF"></path>
                    <path d="M19.4626064,1.68459574 C19.4626064,1.14740426 19.8967136,0.713361702 20.4329636,0.713361702 C20.9722779,0.713361702 21.4227279,1.14740426 21.4227279,1.68459574 C21.4227279,2.22280851 20.9722779,2.67319149 20.4329636,2.67319149 C19.8967136,2.67319149 19.4626064,2.22280851 19.4626064,1.68459574 M15.4882279,1.68459574 C15.4882279,1.14740426 15.922335,0.713361702 16.4606279,0.713361702 C16.9989207,0.713361702 17.4493707,1.14740426 17.4493707,1.68459574 C17.4493707,2.22280851 16.9989207,2.67319149 16.4606279,2.67319149 C15.922335,2.67319149 15.4882279,2.22280851 15.4882279,1.68459574 M18.4370921,14.6782979 C20.920185,14.6782979 22.9487421,12.6653617 22.9487421,10.1846809 C22.9487421,7.7213617 20.920185,5.6573617 18.4370921,5.6573617 C15.9754493,5.6573617 13.9448493,7.7213617 13.9448493,10.1846809 C13.9448493,12.6653617 15.9754493,14.6782979 18.4370921,14.6782979 M18.4370921,3.92221277 C21.9089279,3.92221277 24.6841493,6.71540426 24.6841493,10.1846809 C24.6841493,13.6549787 21.9089279,16.4124255 18.4370921,16.4124255 C14.9693421,16.4124255 12.2094421,13.6549787 12.2094421,10.1846809 C12.2094421,6.71540426 14.9693421,3.92221277 18.4370921,3.92221277" id="Fill-11" fill="#FFFFFF"></path>
                    <path d="M32.0230114,3.92262128 C33.68794,3.92262128 35.0597186,4.52925957 36.2394686,5.5362383 C36.3773614,5.67411064 36.3937043,5.88245106 36.2568329,6.02134468 C35.9963686,6.29913191 35.7359043,6.55955745 35.47544,6.83734468 C35.3355043,6.99257872 35.1976114,6.97521702 35.0239686,6.8189617 C34.2088686,6.10815319 33.1333043,5.64040851 32.0751043,5.64040851 C29.6114186,5.64040851 27.7187114,7.72177021 27.7187114,10.150366 C27.7187114,12.5616 29.6114186,14.6429617 32.0751043,14.6429617 C33.5153186,14.6429617 34.5040614,14.1221106 34.6777043,14.0536851 L34.6777043,12.1101957 L32.9770257,12.1101957 C32.7849971,12.1101957 32.6471043,11.9713021 32.6471043,11.7987064 L32.6471043,10.7917277 C32.6471043,10.6017702 32.7849971,10.4618553 32.9770257,10.4618553 L36.13324,10.4618553 C36.3079043,10.4618553 36.4457971,10.6191319 36.4457971,10.7917277 C36.4457971,12.1796426 36.4641829,13.6022809 36.4641829,14.9901957 C36.4641829,15.0770043 36.3937043,15.2158979 36.3252686,15.267983 C36.3252686,15.267983 34.53879,16.412834 32.0230114,16.412834 C28.5695614,16.412834 25.7769757,13.654366 25.7769757,10.1850894 C25.7769757,6.71581277 28.5695614,3.92262128 32.0230114,3.92262128" id="Fill-13" fill="#FFFFFF"></path>
                    <path d="M37.9031714,14.4870128 C38.0584286,14.2613106 38.1973429,14.0008851 38.3526,13.7762043 C38.5109214,13.5505021 38.753,13.4810553 38.9440071,13.6373106 C39.0471714,13.7241191 40.3842214,14.8342468 41.7192286,14.8342468 C42.9163429,14.8342468 43.67935,14.1060766 43.67935,13.2206298 C43.67935,12.1799489 42.7774286,11.5202043 41.0614286,10.8093957 C39.2902714,10.0638638 37.9031714,9.14369362 37.9031714,7.13177872 C37.9031714,5.77858723 38.9440071,3.92292766 41.7028857,3.92292766 C43.4382929,3.92292766 44.7385714,4.82471489 44.9111929,4.94624681 C45.0511286,5.03305532 45.1900429,5.27611915 45.0164,5.5355234 C44.8764643,5.74386383 44.7212071,5.98692766 44.5833143,6.19526809 C44.4433786,6.42097021 44.2186643,6.52514043 43.9745429,6.36888511 C43.8529929,6.2994383 42.6395357,5.50182128 41.6324071,5.50182128 C40.17585,5.50182128 39.6722857,6.42097021 39.6722857,7.06233191 C39.6722857,8.05092766 40.4352929,8.65858723 41.8765286,9.24786383 C43.8877214,10.0638638 45.6067857,11.0177362 45.6067857,13.1338213 C45.6067857,14.938417 43.9929286,16.4131404 41.7376143,16.4131404 C39.6212143,16.4131404 38.2851857,15.3019915 38.0073571,15.0425872 C37.8500571,14.9036936 37.7285071,14.7821617 37.9031714,14.4870128" id="Fill-15" fill="#FFFFFF"></path>
                    <path d="M47.49602,4.51210213 C47.49602,4.2864 47.6696629,4.09542128 47.9127629,4.09542128 L48.91887,4.09542128 C49.1446057,4.09542128 49.3356129,4.2864 49.3356129,4.51210213 L49.3356129,9.31720851 L54.2272343,4.2690383 C54.2977129,4.18222979 54.4192629,4.09542128 54.5571557,4.09542128 L55.8594771,4.09542128 C56.1710129,4.09542128 56.3446557,4.46001702 56.1015557,4.72044255 L51.0873629,9.82069787 L56.3967486,15.6664851 C56.5356629,15.8401021 56.4488414,16.2394213 56.0841914,16.2394213 L54.69607,16.2394213 C54.5224271,16.2394213 54.4192629,16.1699745 54.3845343,16.1178894 L49.3356129,10.4283574 L49.3356129,15.8227404 C49.3356129,16.0484426 49.1446057,16.2394213 48.91887,16.2394213 L47.9127629,16.2394213 C47.6696629,16.2394213 47.49602,16.0484426 47.49602,15.8227404 L47.49602,4.51210213 Z" id="Fill-17" fill="#FFFFFF"></path>
                    <path d="M62.6250114,14.6779915 C65.1060614,14.6779915 67.13564,12.6650553 67.13564,10.1853957 C67.13564,7.72105532 65.1060614,5.65705532 62.6250114,5.65705532 C60.1613257,5.65705532 58.1317471,7.72105532 58.1317471,10.1853957 C58.1317471,12.6650553 60.1613257,14.6779915 62.6250114,14.6779915 M62.6250114,3.92190638 C66.0937829,3.92190638 68.8700257,6.71509787 68.8700257,10.1853957 C68.8700257,13.6546723 66.0937829,16.4131404 62.6250114,16.4131404 C59.1552186,16.4131404 56.3953186,13.6546723 56.3953186,10.1853957 C56.3953186,6.71509787 59.1552186,3.92190638 62.6250114,3.92190638" id="Fill-19" fill="#FFFFFF"></path>
                    <path d="M70.8473071,4.42529362 C70.8473071,4.2516766 70.9862214,4.09542128 71.1772286,4.09542128 L72.32225,4.09542128 C72.4958929,4.09542128 72.65115,4.2516766 72.65115,4.42529362 L72.65115,14.6258043 L77.3538071,14.6258043 C77.5448143,14.6258043 77.6816857,14.7810383 77.6816857,14.9556766 L77.6816857,15.9095489 C77.6816857,16.0821447 77.5448143,16.2394213 77.3538071,16.2394213 L71.1772286,16.2394213 C70.9862214,16.2394213 70.8473071,16.0821447 70.8473071,15.9095489 L70.8473071,4.42529362 Z" id="Fill-21" fill="#FFFFFF"></path>
                    <path d="M85.7677229,12.1102979 L83.6329371,7.3572766 L83.5461157,7.3572766 L81.4297157,12.1102979 L85.7677229,12.1102979 Z M77.90783,15.7879149 L83.23458,4.11370213 C83.2856514,4.00953191 83.4429514,3.9227234 83.5297729,3.9227234 L83.7023943,3.9227234 C83.7892157,3.9227234 83.9454943,4.00953191 83.9986086,4.11370213 L89.2885871,15.7879149 C89.3937943,16.013617 89.2538586,16.2393191 88.9933943,16.2393191 L87.9014871,16.2393191 C87.6931157,16.2393191 87.5715657,16.1351489 87.5010871,15.9788936 L86.4265443,13.602383 L80.75353,13.602383 C80.4062443,14.4010213 80.0426157,15.1812766 79.69533,15.9788936 C79.6432371,16.1004255 79.5033014,16.2393191 79.29493,16.2393191 L78.2030229,16.2393191 C77.94358,16.2393191 77.8026229,16.013617 77.90783,15.7879149 Z" id="Fill-23" fill="#FFFFFF"></path>
                    <g id="Group-27" transform="translate(89.885714, 3.063830)">
                        <mask id="mask-2" fill="white">
                            <use xlink:href="#path-1"></use>
                        </mask>
                        <g id="Clip-26"></g>
                        <path d="M0.321852143,1.17099574 C0.321852143,0.997378723 0.478130714,0.858485106 0.651773571,0.858485106 L1.08588071,0.858485106 L8.61483071,9.56691064 L8.632195,9.56691064 L8.632195,1.36197447 C8.632195,1.18835745 8.77110929,1.03210213 8.96211643,1.03210213 L10.0724093,1.03210213 C10.2460521,1.03210213 10.4023307,1.18835745 10.4023307,1.36197447 L10.4023307,13.0361872 C10.4023307,13.2098043 10.2460521,13.3486979 10.0724093,13.3486979 L9.62093786,13.3486979 L2.09198786,4.39720851 L2.07360214,4.39720851 L2.07360214,12.8462298 C2.07360214,13.0188255 1.93570929,13.1750809 1.74470214,13.1750809 L0.651773571,13.1750809 C0.478130714,13.1750809 0.321852143,13.0188255 0.321852143,12.8462298 L0.321852143,1.17099574 Z" id="Fill-25" fill="#FFFFFF" mask="url(#mask-2)"></path>
                    </g>
                    <path d="M16.2128293,20.7951319 C16.2128293,20.6674723 16.3282507,20.5530894 16.4549079,20.5530894 L17.2975864,20.5530894 C17.425265,20.5530894 17.5406864,20.6674723 17.5406864,20.7951319 L17.5406864,29.2461957 C17.5406864,29.3748766 17.425265,29.4892596 17.2975864,29.4892596 L16.4549079,29.4892596 C16.3282507,29.4892596 16.2128293,29.3748766 16.2128293,29.2461957 L16.2128293,20.7951319 Z" id="Fill-28" fill="#FFFFFF"></path>
                    <path d="M22.3932893,20.7951319 C22.3932893,20.6674723 22.5087107,20.5530894 22.6353679,20.5530894 L23.4780464,20.5530894 C23.6190036,20.5530894 23.7211464,20.6674723 23.7211464,20.7951319 L23.7211464,24.3573447 L28.3941821,24.3573447 L28.3941821,20.7951319 C28.3941821,20.6674723 28.4983679,20.5530894 28.6372821,20.5530894 L29.4799607,20.5530894 C29.6076393,20.5530894 29.7220393,20.6674723 29.7220393,20.7951319 L29.7220393,29.2461957 C29.7220393,29.3748766 29.6076393,29.4892596 29.4799607,29.4892596 L28.6372821,29.4892596 C28.4983679,29.4892596 28.3941821,29.3748766 28.3941821,29.2461957 L28.3941821,25.5573447 L23.7211464,25.5573447 L23.7211464,29.2461957 C23.7211464,29.3748766 23.6190036,29.4892596 23.4780464,29.4892596 L22.6353679,29.4892596 C22.5087107,29.4892596 22.3932893,29.3748766 22.3932893,29.2461957 L22.3932893,20.7951319 Z" id="Fill-30" fill="#FFFFFF"></path>
                    <path d="M36.5675514,26.4510638 L34.9965943,22.9531915 L34.9332657,22.9531915 L33.3755871,26.4510638 L36.5675514,26.4510638 Z M30.7832014,29.1574468 L34.7034443,20.5654468 C34.7412371,20.4888511 34.8566586,20.4245106 34.9210086,20.4245106 L35.0486871,20.4245106 C35.1120157,20.4245106 35.2274371,20.4888511 35.26523,20.5654468 L39.1599371,29.1574468 C39.2365443,29.3239149 39.1344014,29.4893617 38.9423729,29.4893617 L38.1385086,29.4893617 C37.9852943,29.4893617 37.8954086,29.412766 37.8443371,29.298383 L37.05273,27.5489362 L32.87713,27.5489362 C32.6217729,28.1361702 32.3541586,28.7111489 32.0988014,29.298383 C32.0599871,29.387234 31.9578443,29.4893617 31.80463,29.4893617 L30.9997443,29.4893617 C30.8087371,29.4893617 30.7065943,29.3239149 30.7832014,29.1574468 Z" id="Fill-32" fill="#FFFFFF"></path>
                    <path d="M40.2203843,20.7951319 C40.2203843,20.6674723 40.3235486,20.5530894 40.4624629,20.5530894 L41.3051414,20.5530894 C41.43282,20.5530894 41.5492629,20.6674723 41.5492629,20.7951319 L41.5492629,28.3015149 L45.0088414,28.3015149 C45.1487771,28.3015149 45.2519414,28.4169191 45.2519414,28.5445787 L45.2519414,29.2461957 C45.2519414,29.3748766 45.1487771,29.4892596 45.0088414,29.4892596 L40.4624629,29.4892596 C40.3235486,29.4892596 40.2203843,29.3748766 40.2203843,29.2461957 L40.2203843,20.7951319 Z" id="Fill-34" fill="#FFFFFF"></path>
                    <g id="Group-38" transform="translate(44.942857, 19.404255)">
                        <mask id="mask-4" fill="white">
                            <use xlink:href="#path-3"></use>
                        </mask>
                        <g id="Clip-37"></g>
                        <path d="M2.40352357,1.21235745 C2.42803786,1.11022979 2.53120214,1.02035745 2.633345,1.02035745 L2.83763071,1.02035745 C2.91423786,1.02035745 3.02863786,1.08469787 3.055195,1.16129362 L5.72316643,7.68520851 L5.77423786,7.68520851 L8.42893071,1.16129362 C8.45548786,1.08469787 8.55660929,1.02035745 8.646495,1.02035745 L8.85078071,1.02035745 C8.95292357,1.02035745 9.05608786,1.11022979 9.08060214,1.21235745 L10.6515593,9.79210213 C10.6893521,9.97082553 10.6004879,10.0852085 10.4227593,10.0852085 L9.59131643,10.0852085 C9.47691643,10.0852085 9.37477357,9.99635745 9.35025929,9.90648511 L8.40441643,4.20061277 L8.36662357,4.20061277 L6.06840929,10.0729532 C6.04287357,10.1495489 5.965245,10.2128681 5.850845,10.2128681 L5.62000214,10.2128681 C5.51888071,10.2128681 5.43001643,10.1495489 5.40448071,10.0729532 L3.09298786,4.20061277 L3.04191643,4.20061277 L2.12263071,9.90648511 C2.11037357,9.99635745 1.99495214,10.0852085 1.89280929,10.0852085 L1.06238786,10.0852085 C0.884659286,10.0852085 0.794773571,9.97082553 0.819287857,9.79210213 L2.40352357,1.21235745 Z" id="Fill-36" fill="#FFFFFF" mask="url(#mask-4)"></path>
                    </g>
                    <path d="M56.68091,28.1998979 C56.79531,28.0334298 56.8974529,27.8424511 57.0128743,27.6770043 C57.1282957,27.5105362 57.3060243,27.4594723 57.4469814,27.5738553 C57.5235886,27.6381957 58.5072243,28.455217 59.4898386,28.455217 C60.3713314,28.455217 60.9331171,27.9180255 60.9331171,27.2684936 C60.9331171,26.5025362 60.27021,26.0164085 59.00466,25.4935149 C57.7023386,24.9440681 56.68091,24.2669617 56.68091,22.7861106 C56.68091,21.790366 57.4469814,20.4238979 59.4775814,20.4238979 C60.7543671,20.4238979 61.7114457,21.0887489 61.8391243,21.1776 C61.9412671,21.2429617 62.04341,21.4206638 61.9157314,21.6126638 C61.81461,21.764834 61.6991886,21.9435574 61.5970457,22.0977702 C61.4949029,22.2642383 61.32841,22.3398128 61.14966,22.2244085 C61.0607957,22.174366 60.1670457,21.5861106 59.42651,21.5861106 C58.3550314,21.5861106 57.9832314,22.2642383 57.9832314,22.7350468 C57.9832314,23.463217 58.5450171,23.9105362 59.60526,24.3435574 C61.0863314,24.9440681 62.3498386,25.6467064 62.3498386,27.2041532 C62.3498386,28.5318128 61.16396,29.6164085 59.5041386,29.6164085 C57.9454386,29.6164085 56.9618029,28.8004085 56.7575171,28.6084085 C56.6420957,28.5073021 56.5532314,28.4174298 56.68091,28.1998979" id="Fill-39" fill="#FFFFFF"></path>
                    <path d="M65.1227107,21.7525787 L63.0410393,21.7525787 C62.9000821,21.7525787 62.7989607,21.6381957 62.7989607,21.5105362 L62.7989607,20.7956426 C62.7989607,20.667983 62.9000821,20.5525787 63.0410393,20.5525787 L68.5322393,20.5525787 C68.672175,20.5525787 68.7732964,20.667983 68.7732964,20.7956426 L68.7732964,21.5105362 C68.7732964,21.6381957 68.672175,21.7525787 68.5322393,21.7525787 L66.4505679,21.7525787 L66.4505679,29.2467064 C66.4505679,29.374366 66.3351464,29.4897702 66.2074679,29.4897702 L65.3637679,29.4897702 C65.2371107,29.4897702 65.1227107,29.374366 65.1227107,29.2467064 L65.1227107,21.7525787 Z" id="Fill-41" fill="#FFFFFF"></path>
                    <path d="M73.8057729,26.4510638 L72.2348157,22.9531915 L72.1704657,22.9531915 L70.6138086,26.4510638 L73.8057729,26.4510638 Z M68.0214229,29.1574468 L71.9416657,20.5654468 C71.9794586,20.4888511 72.0938586,20.4245106 72.15923,20.4245106 L72.2869086,20.4245106 C72.3492157,20.4245106 72.4656586,20.4888511 72.5034514,20.5654468 L76.3971371,29.1574468 C76.4737443,29.3239149 76.3726229,29.4893617 76.1795729,29.4893617 L75.3757086,29.4893617 C75.2235157,29.4893617 75.13363,29.412766 75.0825586,29.298383 L74.2909514,27.5489362 L70.1153514,27.5489362 C69.8599943,28.1361702 69.59238,28.7111489 69.3370229,29.298383 C69.2982086,29.387234 69.1950443,29.4893617 69.0428514,29.4893617 L68.2379657,29.4893617 C68.0459371,29.4893617 67.9448157,29.3239149 68.0214229,29.1574468 Z" id="Fill-43" fill="#FFFFFF"></path>
                    <path d="M80.44608,28.2766979 C82.3234657,28.2766979 83.6891157,26.8979745 83.6891157,25.0086128 C83.6891157,23.1325277 82.3234657,21.7650383 80.44608,21.7650383 L78.7607229,21.7650383 L78.7607229,28.2766979 L80.44608,28.2766979 Z M77.4584014,20.7948255 C77.4584014,20.6681872 77.5605443,20.552783 77.6882229,20.552783 L80.62483,20.552783 C83.0885157,20.552783 85.1058371,22.5575489 85.1058371,25.0086128 C85.1058371,27.4852085 83.0885157,29.4899745 80.62483,29.4899745 L77.6882229,29.4899745 C77.5605443,29.4899745 77.4584014,29.3745702 77.4584014,29.2469106 L77.4584014,20.7948255 Z" id="Fill-45" fill="#FFFFFF"></path>
                </g>
            </g>
        </g>
    </g>
</svg>